<svg xmlns="http://www.w3.org/2000/svg" viewBox="0 0 900 320" role="img" aria-label="Dashboard banner">
  <defs>
    <linearGradient id="g1" x1="0" y1="0" x2="1" y2="1">
      <stop offset="0%" stop-color="#312e81"/>
      <stop offset="100%" stop-color="#6d28d9"/>
    </linearGradient>
  </defs>
  <rect width="900" height="320" rx="28" fill="url(#g1)"/>
  <g opacity="0.2" fill="#fff">
    <circle cx="120" cy="60" r="48"/><circle cx="810" cy="280" r="70"/><circle cx="740" cy="70" r="34"/>
  </g>
  <g fill="#fff" opacity="0.95">
    <rect x="72" y="84" width="220" height="150" rx="14"/>
    <rect x="320" y="66" width="236" height="178" rx="14"/>
    <rect x="580" y="102" width="250" height="136" rx="14"/>
  </g>
  <g fill="#c7d2fe">
    <rect x="90" y="104" width="82" height="12" rx="6"/>
    <rect x="90" y="126" width="182" height="10" rx="5"/>
    <rect x="90" y="148" width="156" height="10" rx="5"/>
    <rect x="340" y="90" width="120" height="12" rx="6"/>
    <rect x="340" y="114" width="190" height="10" rx="5"/>
    <rect x="340" y="136" width="170" height="10" rx="5"/>
    <rect x="600" y="128" width="140" height="12" rx="6"/>
    <rect x="600" y="152" width="210" height="10" rx="5"/>
  </g>
</svg>
